<svg width="1024" height="1024" viewBox="0 0 1024 1024" fill="none"
    xmlns="http://www.w3.org/2000/svg">
    <rect width="1024" height="1024" rx="64" fill="white"/>
    <path d="M288.145 333.627V238.545H736.121V333.627H569.129V784H455.137V333.627H288.145Z" fill="black"/>
    <path d="M496.166 759.491H487.545V718.875H496.166V734.016H537V744.351H496.166V759.491ZM537 712.379H499.909V702.092H537V712.379ZM495.128 707.212C495.128 708.741 494.621 710.053 493.607 711.148C492.576 712.226 491.345 712.766 489.912 712.766C488.495 712.766 487.28 712.226 486.266 711.148C485.235 710.053 484.72 708.741 484.72 707.212C484.72 705.682 485.235 704.378 486.266 703.3C487.28 702.205 488.495 701.658 489.912 701.658C491.345 701.658 492.576 702.205 493.607 703.3C494.621 704.378 495.128 705.682 495.128 707.212ZM537 694.045H530.866L508.385 675.886H508.119V693.417H499.909V663.498H506.598L528.524 680.547H528.79V662.87H537V694.045ZM537 655.197H530.866L508.385 637.038H508.119V654.57H499.909V624.651H506.598L528.524 641.699H528.79V624.023H537V655.197ZM487.545 605.87H537V616.157H487.545V605.87ZM537.724 580.726C537.724 584.541 536.952 587.825 535.406 590.578C533.845 593.315 531.639 595.424 528.79 596.905C525.924 598.386 522.536 599.126 518.624 599.126C514.808 599.126 511.46 598.386 508.578 596.905C505.696 595.424 503.451 593.339 501.841 590.651C500.231 587.946 499.426 584.775 499.426 581.136C499.426 578.689 499.821 576.411 500.609 574.303C501.382 572.178 502.549 570.326 504.111 568.749C505.672 567.155 507.636 565.915 510.003 565.03C512.353 564.144 515.106 563.702 518.261 563.702H521.087V595.021H514.712V573.385C513.231 573.385 511.919 573.707 510.776 574.351C509.633 574.995 508.739 575.888 508.095 577.031C507.435 578.158 507.105 579.47 507.105 580.967C507.105 582.529 507.467 583.913 508.192 585.121C508.9 586.312 509.858 587.246 511.065 587.922C512.257 588.598 513.585 588.944 515.05 588.96H521.111C522.946 588.96 524.532 588.622 525.868 587.946C527.204 587.254 528.234 586.28 528.959 585.024C529.683 583.768 530.045 582.279 530.045 580.557C530.045 579.414 529.884 578.367 529.562 577.418C529.241 576.468 528.758 575.655 528.114 574.979C527.47 574.303 526.681 573.787 525.747 573.433L526.375 563.919C528.661 564.402 530.657 565.392 532.364 566.889C534.054 568.37 535.374 570.286 536.324 572.636C537.258 574.971 537.724 577.667 537.724 580.726Z" fill="white"/>
</svg>
